# xmcd CD database file
#
# Track frame offsets:
#	150
#	15842
#	26000
#	40557
#	52725
#	63992
#	76817
#	87055
#	96885
#	107577
#	116875
#	130362
#	145445
#	161012
#	173700
#	185272
#	195465
#	206035
#	216075
#	227972
#
# Disc length: 3202 seconds
#
# Revision: 0
# Processed by: cddbd v1.4PL0 Copyright (c) Steve Scherf et al.
# Submitted via: CDex 1.50
#
DISCID=050c8014
DTITLE=Various Artist - Country Classics Volume 4
DYEAR=1995
DGENRE=Country
TTITLE0=Roger Miller - With Pen In Hand
TTITLE1=Johnny Cash - (I Heard That) Lonesome Whistle
TTITLE2=George Jones - Cold Cold Heart
TTITLE3=Johnny Horton - Done Rovin'
TTITLE4=Patsy Cline - In Care Of The Blues
TTITLE5=Faron Young - I'm A Free Man Now
TTITLE6=Dave Dudley - Seven Lonely Days
TTITLE7=Jerry Lee Lewis - I Love You So Much It Hurts
TTITLE8=Hank Locklin - Born To Ramble
TTITLE9=Jerry Wallace - In A Cotton Candy World
TTITLE10=Frank Tilman - I Can't Help It (If I'm Still In Love With You)
TTITLE11=Bobby Bare - For The Good Times
TTITLE12=Bill Anderson - We May Never Pass This Way Again
TTITLE13=Stanford Clark - They Call Me Country
TTITLE14=Roy Clark - The Most Beautiful Girl In The World
TTITLE15=Ferlin Husky - Deadly Weapon
TTITLE16=Billie Jo Spears - I'm So Lonesome I Could Cry
TTITLE17=Cash McCall - Travellin' Alone
TTITLE18=Justin Tubb - Looking Back To See
TTITLE19=Charlie Rich - My Heart Cries For You
EXTD=YEAR: 1995
EXTT0=
EXTT1=
EXTT2=
EXTT3=
EXTT4=
EXTT5=
EXTT6=
EXTT7=
EXTT8=
EXTT9=
EXTT10=
EXTT11=
EXTT12=
EXTT13=
EXTT14=
EXTT15=
EXTT16=
EXTT17=
EXTT18=
EXTT19=
PLAYORDER=
